<svg width="87" height="88" viewBox="0 0 87 88" fill="none" xmlns="http://www.w3.org/2000/svg">
<rect x="0.358398" y="0.858154" width="86.2887" height="86.2887" rx="21.5722" fill="#FF6F61" fill-opacity="0.18"/>
<path d="M53.0664 23.7898C46.9071 24.0414 43.5027 28.475 43.5027 28.475C43.5027 28.475 39.8557 23.7246 33.2807 23.7785C30.7796 23.7988 28.3977 24.8482 26.4315 26.3942C21.0744 30.6052 20.3621 35.1646 21.4879 39.5082H29.2718L33.1661 36.587C34.1975 35.814 35.6693 36.0657 36.3839 37.1375L39.5613 41.9014L41.5567 40.4048C42.3342 39.8206 43.2803 39.506 44.2532 39.506H46.3745C47.325 37.8723 49.2508 36.8791 51.3721 37.3982C52.99 37.7937 54.2955 39.1532 54.6371 40.7823C55.2461 43.6901 53.0439 46.2495 50.244 46.2495C48.5857 46.2495 47.152 45.3395 46.3723 44.0024H44.251L40.3568 46.9237C39.3254 47.6967 37.8535 47.445 37.1389 46.3731L33.9615 41.6093L31.9684 43.1036C31.1909 43.6878 30.2448 44.0024 29.2718 44.0024H23.3327C26.7349 50.2134 32.9548 55.4177 35.1458 57.4626C37.467 59.6243 40.3298 62.1927 42.0309 63.7073C42.8735 64.4578 44.1297 64.4578 44.9723 63.7073C46.6734 62.1927 49.5384 59.6243 51.8574 57.4626C55.7225 53.8605 72.1533 40.443 63.4749 28.9738C60.9829 25.6773 57.1965 23.6212 53.0664 23.7898Z" fill="white"/>
</svg>
