<svg width="28" height="21" viewBox="0 0 28 21" fill="none" xmlns="http://www.w3.org/2000/svg">
<path d="M0.639648 20.7818V14.8381C0.639648 13.1287 0.951704 11.3514 1.57582 9.50616C2.21884 7.64145 3.08881 5.88358 4.18574 4.23254C5.30157 2.56207 6.54979 1.15383 7.9304 0.0078125L12.6963 3.18364C11.5805 4.91238 10.6443 6.71881 9.88784 8.60295C9.15026 10.4676 8.79092 12.5266 8.80983 14.7798V20.7818H0.639648ZM15.0226 20.7818V14.8381C15.0226 13.1287 15.3346 11.3514 15.9587 9.50616C16.6018 7.64145 17.4717 5.88358 18.5687 4.23254C19.6845 2.56207 20.9327 1.15383 22.3133 0.0078125L27.0793 3.18364C25.9634 4.91238 25.0273 6.71881 24.2708 8.60295C23.5332 10.4676 23.1738 12.5266 23.1928 14.7798V20.7818H15.0226Z" fill="#380A48"/>
</svg>
